<svg xmlns="http://www.w3.org/2000/svg" width="196" height="47" viewBox="0 0 196 47" fill="none"><path d="M66.7317 47C79.5824 47 90 36.4787 90 23.5C90 10.5213 79.5824 0 66.7317 0C55.4281 0 46.007 8.14051 43.9024 18.9335V1.33019H21.9512C9.8279 1.33019 0 11.256 0 23.5V45.6698H32.9268C38.9885 45.6698 43.9024 40.7069 43.9024 34.5849V28.0665C46.007 38.8595 55.4281 47 66.7317 47Z" fill="url(#paint0_linear)"></path><path d="M120.571 19.698C123.64 19.698 125.638 18.195 125.638 15.333C125.638 12.408 123.55 11.724 120.94 11.229C119.446 10.95 118.366 10.824 118.366 9.744C118.366 8.808 119.176 8.331 120.4 8.331C121.507 8.331 122.758 8.727 124.081 9.672C124.144 9.717 124.171 9.708 124.198 9.645L125.179 7.476C125.206 7.422 125.179 7.377 125.134 7.35C123.55 6.261 121.912 5.838 120.427 5.838C117.565 5.838 115.558 7.404 115.558 10.023C115.558 12.948 118.051 13.497 120.049 13.866C121.723 14.172 122.83 14.388 122.83 15.531C122.83 16.494 122.056 17.133 120.553 17.133C119.059 17.133 117.709 16.503 116.89 15.639C116.845 15.594 116.809 15.603 116.773 15.648L115.243 17.592C115.207 17.637 115.225 17.691 115.252 17.718C116.503 18.924 118.375 19.698 120.571 19.698ZM130.835 19.68C132.014 19.68 132.995 19.32 133.607 18.681C133.661 18.627 133.67 18.618 133.697 18.618C133.724 18.618 133.742 18.636 133.76 18.681L134.093 19.428C134.111 19.473 134.156 19.5 134.183 19.5H135.884C135.929 19.5 135.974 19.464 135.974 19.41V12.876C135.974 10.644 134.606 9.132 131.528 9.132C128.837 9.132 127.307 10.266 126.974 12.525C126.965 12.588 127.01 12.624 127.064 12.624H129.602C129.674 12.624 129.692 12.579 129.701 12.534C129.872 11.679 130.466 11.238 131.573 11.238C132.617 11.238 133.301 11.616 133.301 12.912V13.164C133.301 13.218 133.265 13.254 133.211 13.254H131.051C128.342 13.254 126.794 14.46 126.794 16.44C126.794 18.15 127.955 19.68 130.835 19.68ZM129.467 16.449C129.467 15.684 130.025 15.288 131.159 15.288H133.211C133.265 15.288 133.301 15.324 133.301 15.378V15.774C133.301 17.016 132.581 17.682 131.258 17.682C130.169 17.682 129.467 17.295 129.467 16.449ZM138.816 19.5H141.318C141.372 19.5 141.408 19.464 141.408 19.41V11.382C141.408 11.328 141.444 11.292 141.498 11.292H142.812C142.866 11.292 142.893 11.256 142.911 11.22L143.739 9.42C143.766 9.357 143.73 9.312 143.667 9.312H141.498C141.444 9.312 141.408 9.276 141.408 9.222V8.862C141.408 8.25 141.741 7.971 142.227 7.971C142.425 7.971 142.65 8.025 142.884 8.106C142.947 8.124 142.983 8.088 143.001 8.052L143.82 6.279C143.847 6.225 143.82 6.189 143.766 6.162C143.181 5.937 142.497 5.82 141.948 5.82C139.986 5.82 138.726 7.098 138.726 9.024V9.222C138.726 9.276 138.69 9.312 138.636 9.312H137.664C137.619 9.312 137.583 9.339 137.565 9.384L136.737 11.184C136.71 11.247 136.746 11.292 136.809 11.292H138.636C138.69 11.292 138.726 11.328 138.726 11.382V19.41C138.726 19.464 138.762 19.5 138.816 19.5ZM148.934 19.68C150.446 19.68 151.634 19.266 152.795 18.483C152.84 18.456 152.849 18.42 152.813 18.366L151.571 16.602C151.535 16.548 151.472 16.557 151.427 16.584C150.806 16.962 150.095 17.232 149.06 17.232C148.016 17.232 146.81 17.043 146.477 15.396C146.459 15.324 146.486 15.288 146.558 15.288H152.912C152.966 15.288 153.011 15.252 153.011 15.198V13.866C153.011 11.148 151.472 9.132 148.538 9.132C145.802 9.132 143.687 10.842 143.687 14.316C143.687 18.15 146.171 19.68 148.934 19.68ZM146.459 13.155C146.585 12.048 147.35 11.274 148.556 11.274C149.717 11.274 150.464 12.003 150.491 13.164C150.491 13.218 150.455 13.254 150.401 13.254H146.549C146.495 13.254 146.45 13.218 146.459 13.155ZM157.937 19.5H160.079C160.133 19.5 160.169 19.464 160.169 19.41V17.412C160.169 17.358 160.133 17.322 160.079 17.322H158.981C158.675 17.322 158.477 17.178 158.477 16.854V11.382C158.477 11.328 158.513 11.292 158.567 11.292H159.971C160.025 11.292 160.052 11.256 160.07 11.22L160.898 9.42C160.925 9.357 160.889 9.312 160.826 9.312H158.567C158.513 9.312 158.477 9.276 158.477 9.222V6.09C158.477 6.036 158.441 6 158.387 6H155.885C155.831 6 155.795 6.036 155.795 6.09V9.222C155.795 9.276 155.759 9.312 155.705 9.312H154.733C154.688 9.312 154.652 9.339 154.634 9.384L153.806 11.184C153.779 11.247 153.815 11.292 153.878 11.292H155.705C155.759 11.292 155.795 11.328 155.795 11.382V17.358C155.795 18.762 156.569 19.5 157.937 19.5ZM164.05 23.082C165.724 23.082 167.263 22.524 168.271 19.428L171.538 9.411C171.556 9.348 171.529 9.312 171.466 9.312H168.883C168.865 9.312 168.793 9.321 168.775 9.384L166.471 16.818C166.444 16.908 166.39 16.908 166.363 16.818L164.041 9.384C164.023 9.321 163.951 9.312 163.933 9.312H161.35C161.287 9.312 161.26 9.348 161.278 9.411L164.545 19.428C164.563 19.473 164.608 19.5 164.653 19.5H165.382C165.445 19.5 165.499 19.554 165.481 19.626C165.238 20.58 164.806 20.994 163.888 20.994C163.393 20.994 162.853 20.877 162.34 20.652C162.277 20.634 162.241 20.643 162.223 20.706L161.611 22.533C161.593 22.587 161.62 22.632 161.665 22.65C162.385 22.929 163.168 23.082 164.05 23.082ZM121.984 41.68C125.53 41.68 128.158 39.052 128.158 34.768C128.158 30.286 125.152 27.82 121.858 27.82C118.33 27.82 115.504 30.448 115.504 34.696C115.504 39.052 118.24 41.68 121.984 41.68ZM118.33 34.696C118.33 32.158 119.662 30.43 121.858 30.43C124.126 30.43 125.368 32.266 125.368 34.768C125.368 37.342 124.09 39.07 121.984 39.07C119.68 39.07 118.33 37.288 118.33 34.696ZM134.741 41.68C137.207 41.68 139.061 39.916 139.061 36.388C139.061 32.932 137.279 31.132 134.903 31.132C134.003 31.132 133.229 31.384 132.599 31.879C132.527 31.933 132.491 31.906 132.491 31.834V28.09C132.491 28.036 132.455 28 132.401 28H129.899C129.845 28 129.809 28.036 129.809 28.09V41.41C129.809 41.464 129.845 41.5 129.899 41.5H131.591C131.645 41.5 131.672 41.473 131.69 41.437L132.041 40.69C132.068 40.627 132.122 40.618 132.167 40.672C132.779 41.329 133.643 41.68 134.741 41.68ZM132.491 37.378V35.416C132.491 33.976 133.301 33.562 134.183 33.562C135.587 33.562 136.379 34.606 136.379 36.424C136.379 38.224 135.605 39.268 134.219 39.268C133.391 39.268 132.491 38.908 132.491 37.378ZM144.312 41.68C146.76 41.68 148.443 40.33 148.443 38.107C148.443 35.911 146.769 35.38 145.284 35.074C144.222 34.849 143.07 34.813 143.07 34.075C143.07 33.607 143.511 33.373 144.204 33.373C145.032 33.373 146.067 33.679 147.021 34.237C147.084 34.273 147.111 34.255 147.138 34.201L148.002 32.32C148.029 32.266 148.002 32.212 147.975 32.194C146.823 31.501 145.599 31.15 144.348 31.15C141.765 31.15 140.388 32.59 140.388 34.408C140.388 36.514 142.278 37.162 143.556 37.396C144.501 37.567 145.77 37.621 145.77 38.521C145.77 39.142 145.23 39.475 144.375 39.475C143.43 39.475 142.53 39.106 141.54 38.323C141.477 38.269 141.441 38.296 141.414 38.323L139.956 39.979C139.911 40.033 139.929 40.078 139.992 40.132C141.108 41.113 142.737 41.68 144.312 41.68ZM154.805 41.68C156.317 41.68 157.505 41.266 158.666 40.483C158.711 40.456 158.72 40.42 158.684 40.366L157.442 38.602C157.406 38.548 157.343 38.557 157.298 38.584C156.677 38.962 155.966 39.232 154.931 39.232C153.887 39.232 152.681 39.043 152.348 37.396C152.33 37.324 152.357 37.288 152.429 37.288H158.783C158.837 37.288 158.882 37.252 158.882 37.198V35.866C158.882 33.148 157.343 31.132 154.409 31.132C151.673 31.132 149.558 32.842 149.558 36.316C149.558 40.15 152.042 41.68 154.805 41.68ZM152.33 35.155C152.456 34.048 153.221 33.274 154.427 33.274C155.588 33.274 156.335 34.003 156.362 35.164C156.362 35.218 156.326 35.254 156.272 35.254H152.42C152.366 35.254 152.321 35.218 152.33 35.155ZM160.73 41.5H163.232C163.286 41.5 163.322 41.464 163.322 41.41V35.704C163.322 34.336 163.862 33.517 164.96 33.517C165.203 33.517 165.401 33.544 165.734 33.634C165.788 33.652 165.833 33.607 165.851 33.58L166.823 31.501C166.841 31.456 166.841 31.411 166.778 31.384C166.409 31.231 165.959 31.132 165.446 31.132C164.555 31.132 163.628 31.438 163.079 32.284C163.034 32.347 162.98 32.347 162.953 32.284L162.53 31.375C162.503 31.321 162.449 31.312 162.422 31.312H160.73C160.676 31.312 160.64 31.348 160.64 31.402V41.41C160.64 41.464 160.676 41.5 160.73 41.5ZM170.436 41.5H173.946C173.982 41.5 174.036 41.482 174.054 41.428L177.321 31.411C177.339 31.348 177.312 31.312 177.249 31.312H174.666C174.648 31.312 174.576 31.321 174.558 31.384L172.254 38.818C172.227 38.908 172.173 38.908 172.146 38.818L169.824 31.384C169.806 31.321 169.734 31.312 169.716 31.312H167.133C167.07 31.312 167.043 31.348 167.061 31.411L170.328 41.428C170.346 41.473 170.391 41.5 170.436 41.5ZM183 41.68C184.512 41.68 185.7 41.266 186.861 40.483C186.906 40.456 186.915 40.42 186.879 40.366L185.637 38.602C185.601 38.548 185.538 38.557 185.493 38.584C184.872 38.962 184.161 39.232 183.126 39.232C182.082 39.232 180.876 39.043 180.543 37.396C180.525 37.324 180.552 37.288 180.624 37.288H186.978C187.032 37.288 187.077 37.252 187.077 37.198V35.866C187.077 33.148 185.538 31.132 182.604 31.132C179.868 31.132 177.753 32.842 177.753 36.316C177.753 40.15 180.237 41.68 183 41.68ZM180.525 35.155C180.651 34.048 181.416 33.274 182.622 33.274C183.783 33.274 184.53 34.003 184.557 35.164C184.557 35.218 184.521 35.254 184.467 35.254H180.615C180.561 35.254 180.516 35.218 180.525 35.155ZM188.925 41.5H191.427C191.481 41.5 191.517 41.464 191.517 41.41V35.704C191.517 34.336 192.057 33.517 193.155 33.517C193.398 33.517 193.596 33.544 193.929 33.634C193.983 33.652 194.028 33.607 194.046 33.58L195.018 31.501C195.036 31.456 195.036 31.411 194.973 31.384C194.604 31.231 194.154 31.132 193.641 31.132C192.75 31.132 191.823 31.438 191.274 32.284C191.229 32.347 191.175 32.347 191.148 32.284L190.725 31.375C190.698 31.321 190.644 31.312 190.617 31.312H188.925C188.871 31.312 188.835 31.348 188.835 31.402V41.41C188.835 41.464 188.871 41.5 188.925 41.5Z" fill="#32322D"></path><defs><linearGradient id="paint0_linear" x1="90" y1="3.17046e-06" x2="-3.20409" y2="39.4253" gradientUnits="userSpaceOnUse"><stop stop-color="#EFEFEF"></stop><stop offset="1" stop-color="#D3D3D3"></stop></linearGradient></defs></svg>